<?xml version="1.0" standalone="no"?>
<!DOCTYPE svg PUBLIC "-//W3C//DTD SVG 20010904//EN"
 "http://www.w3.org/TR/2001/REC-SVG-20010904/DTD/svg10.dtd">
<svg version="1.0" xmlns="http://www.w3.org/2000/svg"
 width="641.000000pt" height="149.000000pt" viewBox="0 0 641.000000 149.000000"
 preserveAspectRatio="xMidYMid meet">

<g transform="translate(0.000000,149.000000) scale(0.100000,-0.100000)"
fill="" stroke="" >
<path d="M344 1162 c-99 -35 -203 -131 -243 -223 -36 -83 -44 -165 -25 -249 9
-41 19 -119 21 -172 2 -54 8 -98 13 -98 5 0 25 7 44 16 34 17 34 17 81 -19 73
-57 144 -79 250 -79 123 0 210 32 294 109 89 80 124 157 129 284 4 83 1 108
-22 183 -23 74 -26 98 -20 157 8 78 6 80 -60 47 l-45 -21 -77 39 c-73 37 -82
39 -183 42 -82 2 -117 -2 -157 -16z m218 -43 c61 -13 123 -42 156 -72 19 -18
27 -20 52 -10 l30 11 0 -49 c0 -45 -3 -50 -32 -65 -18 -9 -57 -33 -85 -52
l-53 -35 0 -66 c0 -129 -1 -132 -99 -189 -48 -29 -90 -52 -94 -52 -4 0 -7 20
-7 45 0 43 2 46 50 77 l49 33 3 105 3 105 48 26 c73 39 75 44 27 69 -98 50
-211 33 -298 -45 -69 -62 -96 -128 -89 -218 l4 -68 -38 -20 -39 -20 -9 23
c-55 149 19 346 159 422 96 52 169 65 262 45z m-49 -236 c13 -183 23 -159
-107 -238 -130 -78 -131 -83 -42 -131 41 -23 62 -27 120 -27 115 1 204 54 252
149 20 42 26 160 10 219 -7 28 -5 32 33 52 l40 21 13 -36 c8 -22 13 -81 13
-142 0 -96 -2 -110 -29 -163 -47 -92 -127 -153 -241 -183 -118 -32 -243 -1
-335 82 -29 26 -45 34 -60 29 -18 -6 -20 -2 -20 42 l0 48 63 36 c34 20 95 55
135 78 67 39 72 44 72 76 0 34 -20 49 -35 25 -3 -5 -13 -10 -21 -10 -10 0 -14
12 -14 44 0 44 0 45 68 84 37 22 70 41 73 41 3 1 9 -43 12 -96z m-211 -120
c-2 -7 -8 -13 -13 -13 -11 0 -12 51 -2 77 6 14 9 10 13 -17 3 -19 4 -41 2 -47z
m398 -12 c0 -33 -4 -63 -10 -66 -6 -4 -10 18 -10 59 0 37 4 66 10 66 6 0 10
-26 10 -59z"/>
<path d="M1004 1061 c-2 -2 -4 -58 -4 -123 l0 -118 85 0 85 0 0 -55 c0 -30 -4
-55 -9 -55 -5 0 -19 14 -31 30 -12 17 -26 30 -30 28 -15 -5 -160 -180 -160
-192 0 -20 73 -84 120 -105 61 -28 197 -29 255 -2 50 23 93 65 112 110 l14 34
27 -39 c34 -51 57 -70 117 -99 71 -35 207 -36 280 -1 48 22 123 92 127 119 1
6 4 -21 7 -62 l6 -74 138 -1 137 -1 0 55 1 55 48 -55 49 -54 235 1 c130 0 241
4 247 8 7 4 9 27 4 66 -4 32 -4 59 0 59 4 0 29 -21 55 -47 67 -67 137 -93 250
-93 78 0 94 3 147 30 69 35 80 43 117 88 l27 34 0 -74 0 -73 143 1 c139 0 142
1 145 22 l3 22 18 -21 c17 -21 26 -22 174 -23 87 -1 157 1 157 3 0 2 -29 45
-65 97 l-66 94 25 33 c38 50 52 124 37 193 -17 73 -82 143 -157 168 -49 16
-176 23 -341 18 l-73 -2 0 -68 0 -68 -53 52 c-77 74 -144 97 -262 92 -105 -5
-170 -32 -235 -99 -21 -22 -41 -36 -43 -32 -3 5 -4 30 -3 56 1 26 -1 52 -4 57
-8 13 -81 16 -337 12 l-202 -2 -3 -56 -3 -56 -46 57 -46 57 -239 -1 -239 -1
-3 -180 c-2 -151 -5 -180 -17 -180 -13 0 -15 28 -15 180 l0 180 -217 3 c-317
3 -484 3 -489 -2z m2289 -73 c187 -80 196 -356 14 -449 -147 -76 -334 -21
-398 116 -23 50 -25 151 -3 203 56 136 233 195 387 130z m-1901 -145 c4 -198
-5 -244 -55 -289 -62 -57 -186 -66 -276 -20 -53 28 -55 39 -15 87 20 24 40 48
45 53 5 6 18 1 33 -13 17 -16 33 -22 57 -19 28 3 34 8 41 36 5 18 7 70 6 115
l-3 82 -82 3 -83 3 0 58 c0 32 3 61 7 64 3 4 77 7 164 7 l158 0 3 -167z m260
3 c3 -145 5 -166 22 -185 24 -26 66 -27 97 -2 23 19 24 25 27 185 l4 166 79 0
80 0 -3 -184 -3 -184 -30 -43 c-43 -60 -107 -91 -192 -93 -134 -2 -220 59
-242 174 -11 55 -14 305 -4 323 2 4 40 7 83 7 l79 0 3 -164z m632 51 l91 -108
3 110 3 111 79 0 80 0 0 -250 0 -250 -70 0 c-38 0 -70 3 -70 8 0 4 -12 21 -28
37 -15 17 -55 63 -90 103 l-62 73 0 -111 0 -111 -77 3 -78 3 -3 248 -2 248 67
-3 67 -3 90 -108z m521 -137 l0 -245 -80 0 -80 0 -3 235 c-1 129 0 240 3 248
3 9 25 12 82 10 l78 -3 0 -245z m1066 222 c79 -35 117 -108 103 -200 -5 -37
-15 -55 -45 -84 l-38 -36 49 -70 c27 -38 46 -72 43 -76 -9 -9 -156 -7 -168 2
-6 4 -28 33 -48 65 -24 36 -45 57 -57 57 -16 0 -19 -9 -22 -62 l-3 -63 -82 -3
-83 -3 0 244 c0 134 3 247 8 251 4 5 72 6 152 3 117 -3 154 -8 191 -25z"/>
<path d="M3110 863 c-31 -21 -38 -30 -49 -70 -13 -46 3 -96 40 -127 41 -35 85
-34 129 3 33 27 35 32 35 91 0 59 -2 64 -35 91 -39 33 -83 38 -120 12z m94
-75 c20 -58 -28 -112 -70 -78 -17 15 -19 81 -2 98 22 22 62 10 72 -20z"/>
<path d="M3692 824 l3 -59 43 2 c52 2 72 16 72 53 0 36 -20 51 -76 58 l-45 5
3 -59z"/>
<path d="M4331 1039 c-121 -60 -164 -194 -95 -295 l24 -34 -26 -58 c-60 -132
-58 -117 -16 -142 73 -44 139 -60 246 -60 106 0 150 13 217 61 l29 20 0 -35
c0 -31 3 -36 23 -36 79 -1 664 -2 673 -1 6 1 18 19 27 42 l16 40 52 -3 c51 -3
53 -4 66 -43 l13 -40 283 0 c256 0 285 2 317 19 84 44 130 114 130 196 0 44
-19 104 -39 120 -32 26 -32 38 -2 115 17 42 31 81 31 86 0 14 -47 41 -107 61
-65 21 -211 25 -264 6 -99 -34 -157 -101 -166 -192 -5 -47 -2 -63 22 -110 19
-38 25 -59 18 -70 -7 -13 -22 13 -68 116 -32 73 -71 161 -86 196 l-28 62 -53
2 c-29 1 -83 2 -120 3 l-68 0 -27 -64 c-107 -246 -130 -295 -141 -299 -8 -2
-12 14 -12 56 0 33 4 62 10 64 9 3 17 225 8 234 -3 2 -118 7 -257 9 -244 4
-251 4 -251 -15 0 -24 -1 -24 -70 0 -39 14 -82 19 -151 20 -88 0 -101 -3 -158
-31z m279 -40 c64 -17 66 -21 43 -81 -23 -59 -27 -60 -113 -38 -58 15 -110 6
-110 -19 0 -15 17 -23 87 -40 49 -13 103 -32 121 -43 102 -63 73 -200 -53
-254 -57 -25 -192 -23 -265 3 -50 18 -55 22 -52 46 2 21 38 97 45 97 1 0 31
-9 65 -20 68 -21 118 -25 141 -11 21 13 6 40 -26 46 -96 21 -169 49 -195 75
-24 25 -28 36 -28 88 0 51 4 66 26 92 61 72 182 95 314 59z m1570 -6 c25 -8
46 -16 48 -18 6 -5 -42 -115 -50 -115 -6 0 -35 7 -65 16 -67 20 -123 12 -123
-16 0 -13 9 -22 28 -26 161 -36 203 -57 226 -115 19 -47 10 -99 -25 -143 -46
-59 -147 -84 -266 -66 -72 11 -147 37 -141 49 2 3 14 30 27 59 21 46 27 53 45
47 114 -36 155 -42 186 -25 27 14 15 38 -23 45 -158 32 -216 70 -224 148 -17
144 163 225 357 160z m-1012 -50 l3 -63 -121 0 -120 0 0 -25 c0 -24 1 -24 102
-27 l102 -3 1 -62 2 -63 -103 0 -104 0 0 -30 0 -30 120 0 120 0 0 -65 0 -65
-200 0 -200 0 0 250 0 250 198 -2 197 -3 3 -62z m518 -173 c57 -129 104 -241
104 -247 0 -9 -23 -13 -81 -13 l-80 0 -20 45 -20 45 -94 0 -93 0 -7 -30 c-11
-51 -28 -60 -111 -60 -42 0 -74 4 -74 10 0 5 41 103 91 217 50 115 98 223 106
241 l14 33 81 -3 80 -3 104 -235z m-976 69 c0 -35 -2 -40 -14 -30 -11 10 -12
19 -4 42 14 39 18 37 18 -12z"/>
<path d="M5476 777 c-9 -23 -16 -46 -16 -50 0 -4 18 -7 40 -7 22 0 40 1 40 3
0 15 -34 97 -40 97 -4 0 -15 -19 -24 -43z"/>
</g>
</svg>
